# Blender 3.3.0
# www.blender.org
mtllib UIscreen.mtl
o Plane
v -1.023950 -0.053246 1.023950
v 1.023950 -0.053247 1.023950
v -1.023950 -0.053247 -1.023950
v 1.023950 -0.053247 -1.023950
v -1.069006 -0.168255 -0.874641
v -1.102585 -0.259693 -0.701645
v -1.125786 -0.326050 -0.511721
v -1.139392 -0.366213 -0.310743
v -1.143875 -0.379491 -0.103989
v -1.143875 -0.379491 0.103989
v -1.139392 -0.366213 0.310743
v -1.125786 -0.326050 0.511721
v -1.102585 -0.259693 0.701645
v -1.069006 -0.168255 0.874641
v 1.069006 -0.168255 0.874641
v 1.102585 -0.259693 0.701645
v 1.125786 -0.326050 0.511721
v 1.139392 -0.366213 0.310743
v 1.143875 -0.379491 0.103989
v 1.143875 -0.379491 -0.103989
v 1.139392 -0.366213 -0.310743
v 1.125786 -0.326050 -0.511721
v 1.102585 -0.259693 -0.701645
v 1.069006 -0.168255 -0.874641
v -0.874641 -0.168255 1.069006
v -0.701645 -0.259693 1.102585
v -0.511721 -0.326050 1.125786
v -0.310743 -0.366213 1.139392
v -0.103989 -0.379491 1.143875
v 0.103989 -0.379491 1.143875
v 0.310743 -0.366213 1.139392
v 0.511721 -0.326050 1.125786
v 0.701645 -0.259693 1.102585
v 0.874641 -0.168255 1.069006
v 0.874641 -0.168255 -1.069006
v 0.701645 -0.259693 -1.102585
v 0.511721 -0.326050 -1.125786
v 0.310743 -0.366213 -1.139392
v 0.103989 -0.379491 -1.143875
v -0.103989 -0.379491 -1.143875
v -0.310743 -0.366213 -1.139392
v -0.511721 -0.326050 -1.125786
v -0.701645 -0.259693 -1.102585
v -0.874641 -0.168255 -1.069006
v 0.909772 -0.286266 0.909772
v 0.727920 -0.380074 0.935898
v 0.529954 -0.448143 0.953917
v 0.321490 -0.489367 0.964472
v 0.107550 -0.503066 0.967947
v -0.107550 -0.503066 0.967947
v -0.321491 -0.489367 0.964472
v -0.529954 -0.448143 0.953917
v -0.727920 -0.380074 0.935898
v -0.909772 -0.286266 0.909772
v 0.935898 -0.380074 0.727920
v 0.747425 -0.475725 0.747425
v 0.543469 -0.545112 0.760857
v 0.329450 -0.587149 0.768717
v 0.110186 -0.601171 0.771303
v -0.110186 -0.601171 0.771303
v -0.329450 -0.587149 0.768717
v -0.543469 -0.545112 0.760857
v -0.747425 -0.475725 0.747425
v -0.935898 -0.380074 0.727921
v 0.953917 -0.448143 0.529954
v 0.760857 -0.545112 0.543469
v 0.552767 -0.615437 0.552767
v 0.334921 -0.658048 0.558202
v 0.111998 -0.672299 0.559990
v -0.111998 -0.672299 0.559990
v -0.334921 -0.658048 0.558202
v -0.552767 -0.615437 0.552767
v -0.760857 -0.545112 0.543469
v -0.953917 -0.448143 0.529954
v 0.964472 -0.489367 0.321490
v 0.768717 -0.587149 0.329450
v 0.558202 -0.658048 0.334921
v 0.338119 -0.701010 0.338119
v 0.113057 -0.715400 0.339170
v -0.113057 -0.715400 0.339170
v -0.338119 -0.701010 0.338119
v -0.558202 -0.658048 0.334921
v -0.768717 -0.587149 0.329450
v -0.964472 -0.489367 0.321490
v 0.967947 -0.503066 0.107550
v 0.771303 -0.601171 0.110186
v 0.559990 -0.672299 0.111998
v 0.339170 -0.715400 0.113057
v 0.113405 -0.729844 0.113405
v -0.113405 -0.729844 0.113405
v -0.339170 -0.715400 0.113057
v -0.559990 -0.672299 0.111998
v -0.771303 -0.601171 0.110186
v -0.967947 -0.503066 0.107550
v 0.967947 -0.503066 -0.107550
v 0.771303 -0.601171 -0.110186
v 0.559990 -0.672299 -0.111998
v 0.339170 -0.715400 -0.113057
v 0.113405 -0.729844 -0.113405
v -0.113405 -0.729844 -0.113405
v -0.339170 -0.715400 -0.113057
v -0.559990 -0.672299 -0.111998
v -0.771303 -0.601171 -0.110186
v -0.967947 -0.503066 -0.107550
v 0.964472 -0.489367 -0.321491
v 0.768717 -0.587149 -0.329450
v 0.558202 -0.658048 -0.334921
v 0.338119 -0.701010 -0.338119
v 0.113057 -0.715400 -0.339170
v -0.113057 -0.715400 -0.339170
v -0.338119 -0.701010 -0.338119
v -0.558202 -0.658048 -0.334921
v -0.768717 -0.587149 -0.329450
v -0.964472 -0.489367 -0.321490
v 0.953917 -0.448143 -0.529954
v 0.760857 -0.545112 -0.543469
v 0.552767 -0.615437 -0.552767
v 0.334921 -0.658048 -0.558202
v 0.111998 -0.672299 -0.559990
v -0.111998 -0.672299 -0.559990
v -0.334921 -0.658048 -0.558202
v -0.552767 -0.615437 -0.552767
v -0.760857 -0.545112 -0.543469
v -0.953917 -0.448143 -0.529954
v 0.935898 -0.380074 -0.727920
v 0.747425 -0.475725 -0.747425
v 0.543469 -0.545112 -0.760857
v 0.329450 -0.587149 -0.768717
v 0.110186 -0.601171 -0.771303
v -0.110186 -0.601171 -0.771303
v -0.329450 -0.587149 -0.768717
v -0.543469 -0.545112 -0.760857
v -0.747425 -0.475725 -0.747425
v -0.935898 -0.380074 -0.727921
v 0.909772 -0.286266 -0.909772
v 0.727920 -0.380074 -0.935898
v 0.529954 -0.448143 -0.953917
v 0.321490 -0.489367 -0.964472
v 0.107550 -0.503066 -0.967947
v -0.107550 -0.503066 -0.967947
v -0.321491 -0.489367 -0.964472
v -0.529954 -0.448143 -0.953917
v -0.727920 -0.380074 -0.935898
v -0.909772 -0.286266 -0.909772
vn -0.5185 0.6800 0.5185
vn -0.5830 0.6256 0.5184
vn -0.5812 0.5696 0.5812
vn -0.5184 0.6256 0.5830
vn -0.5184 0.6256 -0.5830
vn -0.5812 0.5696 -0.5812
vn -0.5830 0.6256 -0.5184
vn -0.5185 0.6800 -0.5185
vn -0.5814 0.7155 -0.3874
vn -0.5168 0.7634 -0.3874
vn -0.5795 0.7734 -0.2569
vn -0.5152 0.8175 -0.2573
vn -0.5778 0.8062 -0.1273
vn -0.5138 0.8483 -0.1280
vn -0.5756 0.8171 -0.0315
vn -0.5123 0.8582 -0.0317
vn -0.5756 0.8171 0.0315
vn -0.5123 0.8582 0.0317
vn -0.5778 0.8062 0.1273
vn -0.5138 0.8483 0.1280
vn -0.5795 0.7734 0.2569
vn -0.5152 0.8175 0.2573
vn -0.5814 0.7155 0.3874
vn -0.5168 0.7634 0.3874
vn 0.5814 0.7155 0.3874
vn 0.5168 0.7634 0.3874
vn 0.5185 0.6800 0.5185
vn 0.5830 0.6256 0.5184
vn 0.3862 0.8376 0.3862
vn 0.3874 0.7634 0.5168
vn 0.2568 0.8863 0.3854
vn 0.2573 0.8175 0.5152
vn 0.1280 0.9141 0.3848
vn 0.1280 0.8483 0.5138
vn 0.0318 0.9229 0.3838
vn 0.0317 0.8582 0.5123
vn -0.0318 0.9229 0.3838
vn -0.0317 0.8582 0.5123
vn -0.1280 0.9141 0.3848
vn -0.1280 0.8483 0.5138
vn -0.2568 0.8863 0.3854
vn -0.2573 0.8175 0.5152
vn -0.3862 0.8376 0.3862
vn -0.3874 0.7634 0.5168
vn 0.5795 0.7734 0.2569
vn 0.5152 0.8175 0.2573
vn 0.3854 0.8863 0.2568
vn 0.2566 0.9318 0.2566
vn 0.1282 0.9580 0.2565
vn 0.0319 0.9662 0.2560
vn -0.0319 0.9662 0.2560
vn -0.1282 0.9580 0.2565
vn -0.2566 0.9318 0.2566
vn -0.3854 0.8863 0.2568
vn 0.5778 0.8062 0.1273
vn 0.5138 0.8483 0.1280
vn 0.3848 0.9141 0.1280
vn 0.2565 0.9580 0.1282
vn 0.1282 0.9834 0.1282
vn 0.0320 0.9913 0.1280
vn -0.0320 0.9913 0.1280
vn -0.1282 0.9834 0.1282
vn -0.2565 0.9580 0.1282
vn -0.3848 0.9141 0.1280
vn 0.5756 0.8171 0.0315
vn 0.5123 0.8582 0.0317
vn 0.3838 0.9229 0.0318
vn 0.2560 0.9662 0.0319
vn 0.1280 0.9913 0.0320
vn 0.0320 0.9990 0.0320
vn -0.0320 0.9990 0.0320
vn -0.1280 0.9913 0.0320
vn -0.2560 0.9662 0.0319
vn -0.3838 0.9229 0.0318
vn 0.5756 0.8171 -0.0315
vn 0.5123 0.8582 -0.0317
vn 0.3838 0.9229 -0.0318
vn 0.2560 0.9662 -0.0319
vn 0.1280 0.9913 -0.0320
vn 0.0320 0.9990 -0.0320
vn -0.0320 0.9990 -0.0320
vn -0.1280 0.9913 -0.0320
vn -0.2560 0.9662 -0.0319
vn -0.3838 0.9229 -0.0318
vn 0.5778 0.8062 -0.1273
vn 0.5138 0.8483 -0.1280
vn 0.3848 0.9141 -0.1280
vn 0.2565 0.9580 -0.1282
vn 0.1282 0.9834 -0.1282
vn 0.0320 0.9913 -0.1280
vn -0.0320 0.9913 -0.1280
vn -0.1282 0.9834 -0.1282
vn -0.2565 0.9580 -0.1282
vn -0.3848 0.9141 -0.1280
vn 0.5795 0.7734 -0.2569
vn 0.5152 0.8175 -0.2573
vn 0.3854 0.8863 -0.2568
vn 0.2566 0.9318 -0.2566
vn 0.1282 0.9580 -0.2565
vn 0.0319 0.9662 -0.2560
vn -0.0319 0.9662 -0.2560
vn -0.1282 0.9580 -0.2565
vn -0.2566 0.9318 -0.2566
vn -0.3854 0.8863 -0.2568
vn 0.5814 0.7155 -0.3874
vn 0.5168 0.7634 -0.3874
vn 0.3862 0.8376 -0.3862
vn 0.2568 0.8863 -0.3854
vn 0.1280 0.9141 -0.3848
vn 0.0318 0.9229 -0.3838
vn -0.0318 0.9229 -0.3838
vn -0.1280 0.9141 -0.3848
vn -0.2568 0.8863 -0.3854
vn -0.3862 0.8376 -0.3862
vn 0.5830 0.6256 -0.5184
vn 0.5185 0.6800 -0.5185
vn 0.3874 0.7634 -0.5168
vn 0.2573 0.8175 -0.5152
vn 0.1280 0.8483 -0.5138
vn 0.0317 0.8582 -0.5123
vn -0.0317 0.8582 -0.5123
vn -0.1280 0.8483 -0.5138
vn -0.2573 0.8175 -0.5152
vn -0.3874 0.7634 -0.5168
vn 0.5812 0.5696 -0.5812
vn 0.5184 0.6256 -0.5830
vn 0.3874 0.7155 -0.5814
vn 0.2569 0.7734 -0.5795
vn 0.1273 0.8062 -0.5778
vn 0.0315 0.8171 -0.5756
vn -0.0315 0.8171 -0.5756
vn -0.1273 0.8062 -0.5778
vn -0.2569 0.7734 -0.5795
vn -0.3874 0.7155 -0.5814
vn 0.5184 0.6256 0.5830
vn 0.5812 0.5696 0.5812
vn 0.3874 0.7155 0.5814
vn 0.2569 0.7734 0.5795
vn 0.1273 0.8062 0.5778
vn 0.0315 0.8171 0.5756
vn -0.0315 0.8171 0.5756
vn -0.1273 0.8062 0.5778
vn -0.2569 0.7734 0.5795
vn -0.3874 0.7155 0.5814
vt 0.000000 0.000000
vt 1.000000 0.000000
vt 0.000000 1.000000
vt 1.000000 1.000000
vt 0.000000 0.909091
vt 0.000000 0.818182
vt 0.000000 0.727273
vt 0.000000 0.636364
vt 0.000000 0.545455
vt 0.000000 0.454545
vt 0.000000 0.363636
vt 0.000000 0.272727
vt 0.000000 0.181818
vt 0.000000 0.090909
vt 1.000000 0.090909
vt 1.000000 0.181818
vt 1.000000 0.272727
vt 1.000000 0.363636
vt 1.000000 0.454545
vt 1.000000 0.545455
vt 1.000000 0.636364
vt 1.000000 0.727273
vt 1.000000 0.818182
vt 1.000000 0.909091
vt 0.090909 0.000000
vt 0.181818 0.000000
vt 0.272727 0.000000
vt 0.363636 0.000000
vt 0.454545 0.000000
vt 0.545455 0.000000
vt 0.636364 0.000000
vt 0.727273 0.000000
vt 0.818182 0.000000
vt 0.909091 0.000000
vt 0.909091 1.000000
vt 0.818182 1.000000
vt 0.727273 1.000000
vt 0.636364 1.000000
vt 0.545455 1.000000
vt 0.454545 1.000000
vt 0.363636 1.000000
vt 0.272727 1.000000
vt 0.181818 1.000000
vt 0.090909 1.000000
vt 0.909091 0.090909
vt 0.818182 0.090909
vt 0.727273 0.090909
vt 0.636364 0.090909
vt 0.545455 0.090909
vt 0.454545 0.090909
vt 0.363636 0.090909
vt 0.272727 0.090909
vt 0.181818 0.090909
vt 0.090909 0.090909
vt 0.909091 0.181818
vt 0.818182 0.181818
vt 0.727273 0.181818
vt 0.636364 0.181818
vt 0.545455 0.181818
vt 0.454545 0.181818
vt 0.363636 0.181818
vt 0.272727 0.181818
vt 0.181818 0.181818
vt 0.090909 0.181818
vt 0.909091 0.272727
vt 0.818182 0.272727
vt 0.727273 0.272727
vt 0.636364 0.272727
vt 0.545455 0.272727
vt 0.454545 0.272727
vt 0.363636 0.272727
vt 0.272727 0.272727
vt 0.181818 0.272727
vt 0.090909 0.272727
vt 0.909091 0.363636
vt 0.818182 0.363636
vt 0.727273 0.363636
vt 0.636364 0.363636
vt 0.545455 0.363636
vt 0.454545 0.363636
vt 0.363636 0.363636
vt 0.272727 0.363636
vt 0.181818 0.363636
vt 0.090909 0.363636
vt 0.909091 0.454545
vt 0.818182 0.454545
vt 0.727273 0.454545
vt 0.636364 0.454545
vt 0.545455 0.454545
vt 0.454545 0.454545
vt 0.363636 0.454545
vt 0.272727 0.454545
vt 0.181818 0.454545
vt 0.090909 0.454545
vt 0.909091 0.545455
vt 0.818182 0.545455
vt 0.727273 0.545455
vt 0.636364 0.545455
vt 0.545455 0.545455
vt 0.454545 0.545455
vt 0.363636 0.545455
vt 0.272727 0.545455
vt 0.181818 0.545455
vt 0.090909 0.545454
vt 0.909091 0.636364
vt 0.818182 0.636364
vt 0.727273 0.636364
vt 0.636364 0.636364
vt 0.545455 0.636364
vt 0.454545 0.636364
vt 0.363636 0.636364
vt 0.272727 0.636364
vt 0.181818 0.636364
vt 0.090909 0.636364
vt 0.909091 0.727273
vt 0.818182 0.727273
vt 0.727273 0.727273
vt 0.636364 0.727273
vt 0.545455 0.727273
vt 0.454545 0.727273
vt 0.363636 0.727273
vt 0.272727 0.727273
vt 0.181818 0.727273
vt 0.090909 0.727273
vt 0.909091 0.818182
vt 0.818182 0.818182
vt 0.727273 0.818182
vt 0.636364 0.818182
vt 0.545455 0.818182
vt 0.454545 0.818182
vt 0.363636 0.818182
vt 0.272727 0.818182
vt 0.181818 0.818182
vt 0.090909 0.818182
vt 0.909091 0.909091
vt 0.818182 0.909091
vt 0.727273 0.909091
vt 0.636364 0.909091
vt 0.545455 0.909091
vt 0.454545 0.909091
vt 0.363636 0.909091
vt 0.272727 0.909091
vt 0.181818 0.909091
vt 0.090909 0.909091
s 1
f 135/135/1 24/24/2 4/4/3 35/35/4
f 34/34/5 2/2/6 15/15/7 45/45/8
f 45/45/8 15/15/7 16/16/9 55/55/10
f 55/55/10 16/16/9 17/17/11 65/65/12
f 65/65/12 17/17/11 18/18/13 75/75/14
f 75/75/14 18/18/13 19/19/15 85/85/16
f 85/85/16 19/19/15 20/20/17 95/95/18
f 95/95/18 20/20/17 21/21/19 105/105/20
f 105/105/20 21/21/19 22/22/21 115/115/22
f 115/115/22 22/22/21 23/23/23 125/125/24
f 125/125/24 23/23/23 24/24/2 135/135/1
f 6/6/25 134/134/26 144/144/27 5/5/28
f 134/134/26 133/133/29 143/143/30 144/144/27
f 133/133/29 132/132/31 142/142/32 143/143/30
f 132/132/31 131/131/33 141/141/34 142/142/32
f 131/131/33 130/130/35 140/140/36 141/141/34
f 130/130/35 129/129/37 139/139/38 140/140/36
f 129/129/37 128/128/39 138/138/40 139/139/38
f 128/128/39 127/127/41 137/137/42 138/138/40
f 127/127/41 126/126/43 136/136/44 137/137/42
f 126/126/43 125/125/24 135/135/1 136/136/44
f 7/7/45 124/124/46 134/134/26 6/6/25
f 124/124/46 123/123/47 133/133/29 134/134/26
f 123/123/47 122/122/48 132/132/31 133/133/29
f 122/122/48 121/121/49 131/131/33 132/132/31
f 121/121/49 120/120/50 130/130/35 131/131/33
f 120/120/50 119/119/51 129/129/37 130/130/35
f 119/119/51 118/118/52 128/128/39 129/129/37
f 118/118/52 117/117/53 127/127/41 128/128/39
f 117/117/53 116/116/54 126/126/43 127/127/41
f 116/116/54 115/115/22 125/125/24 126/126/43
f 8/8/55 114/114/56 124/124/46 7/7/45
f 114/114/56 113/113/57 123/123/47 124/124/46
f 113/113/57 112/112/58 122/122/48 123/123/47
f 112/112/58 111/111/59 121/121/49 122/122/48
f 111/111/59 110/110/60 120/120/50 121/121/49
f 110/110/60 109/109/61 119/119/51 120/120/50
f 109/109/61 108/108/62 118/118/52 119/119/51
f 108/108/62 107/107/63 117/117/53 118/118/52
f 107/107/63 106/106/64 116/116/54 117/117/53
f 106/106/64 105/105/20 115/115/22 116/116/54
f 9/9/65 104/104/66 114/114/56 8/8/55
f 104/104/66 103/103/67 113/113/57 114/114/56
f 103/103/67 102/102/68 112/112/58 113/113/57
f 102/102/68 101/101/69 111/111/59 112/112/58
f 101/101/69 100/100/70 110/110/60 111/111/59
f 100/100/70 99/99/71 109/109/61 110/110/60
f 99/99/71 98/98/72 108/108/62 109/109/61
f 98/98/72 97/97/73 107/107/63 108/108/62
f 97/97/73 96/96/74 106/106/64 107/107/63
f 96/96/74 95/95/18 105/105/20 106/106/64
f 10/10/75 94/94/76 104/104/66 9/9/65
f 94/94/76 93/93/77 103/103/67 104/104/66
f 93/93/77 92/92/78 102/102/68 103/103/67
f 92/92/78 91/91/79 101/101/69 102/102/68
f 91/91/79 90/90/80 100/100/70 101/101/69
f 90/90/80 89/89/81 99/99/71 100/100/70
f 89/89/81 88/88/82 98/98/72 99/99/71
f 88/88/82 87/87/83 97/97/73 98/98/72
f 87/87/83 86/86/84 96/96/74 97/97/73
f 86/86/84 85/85/16 95/95/18 96/96/74
f 11/11/85 84/84/86 94/94/76 10/10/75
f 84/84/86 83/83/87 93/93/77 94/94/76
f 83/83/87 82/82/88 92/92/78 93/93/77
f 82/82/88 81/81/89 91/91/79 92/92/78
f 81/81/89 80/80/90 90/90/80 91/91/79
f 80/80/90 79/79/91 89/89/81 90/90/80
f 79/79/91 78/78/92 88/88/82 89/89/81
f 78/78/92 77/77/93 87/87/83 88/88/82
f 77/77/93 76/76/94 86/86/84 87/87/83
f 76/76/94 75/75/14 85/85/16 86/86/84
f 12/12/95 74/74/96 84/84/86 11/11/85
f 74/74/96 73/73/97 83/83/87 84/84/86
f 73/73/97 72/72/98 82/82/88 83/83/87
f 72/72/98 71/71/99 81/81/89 82/82/88
f 71/71/99 70/70/100 80/80/90 81/81/89
f 70/70/100 69/69/101 79/79/91 80/80/90
f 69/69/101 68/68/102 78/78/92 79/79/91
f 68/68/102 67/67/103 77/77/93 78/78/92
f 67/67/103 66/66/104 76/76/94 77/77/93
f 66/66/104 65/65/12 75/75/14 76/76/94
f 13/13/105 64/64/106 74/74/96 12/12/95
f 64/64/106 63/63/107 73/73/97 74/74/96
f 63/63/107 62/62/108 72/72/98 73/73/97
f 62/62/108 61/61/109 71/71/99 72/72/98
f 61/61/109 60/60/110 70/70/100 71/71/99
f 60/60/110 59/59/111 69/69/101 70/70/100
f 59/59/111 58/58/112 68/68/102 69/69/101
f 58/58/112 57/57/113 67/67/103 68/68/102
f 57/57/113 56/56/114 66/66/104 67/67/103
f 56/56/114 55/55/10 65/65/12 66/66/104
f 14/14/115 54/54/116 64/64/106 13/13/105
f 54/54/116 53/53/117 63/63/107 64/64/106
f 53/53/117 52/52/118 62/62/108 63/63/107
f 52/52/118 51/51/119 61/61/109 62/62/108
f 51/51/119 50/50/120 60/60/110 61/61/109
f 50/50/120 49/49/121 59/59/111 60/60/110
f 49/49/121 48/48/122 58/58/112 59/59/111
f 48/48/122 47/47/123 57/57/113 58/58/112
f 47/47/123 46/46/124 56/56/114 57/57/113
f 46/46/124 45/45/8 55/55/10 56/56/114
f 1/1/125 25/25/126 54/54/116 14/14/115
f 25/25/126 26/26/127 53/53/117 54/54/116
f 26/26/127 27/27/128 52/52/118 53/53/117
f 27/27/128 28/28/129 51/51/119 52/52/118
f 28/28/129 29/29/130 50/50/120 51/51/119
f 29/29/130 30/30/131 49/49/121 50/50/120
f 30/30/131 31/31/132 48/48/122 49/49/121
f 31/31/132 32/32/133 47/47/123 48/48/122
f 32/32/133 33/33/134 46/46/124 47/47/123
f 33/33/134 34/34/5 45/45/8 46/46/124
f 5/5/28 144/144/27 44/44/135 3/3/136
f 144/144/27 143/143/30 43/43/137 44/44/135
f 143/143/30 142/142/32 42/42/138 43/43/137
f 142/142/32 141/141/34 41/41/139 42/42/138
f 141/141/34 140/140/36 40/40/140 41/41/139
f 140/140/36 139/139/38 39/39/141 40/40/140
f 139/139/38 138/138/40 38/38/142 39/39/141
f 138/138/40 137/137/42 37/37/143 38/38/142
f 137/137/42 136/136/44 36/36/144 37/37/143
f 136/136/44 135/135/1 35/35/4 36/36/144
